# xmcd CD database file
#
# Track frame offsets:
#	150
#	35773
#	53470
#	81895
#	110153
#	127621
#
# Disc length: 2209 seconds
#
# Revision: 0
# Processed by: cddbd v1.5.2PL0 Copyright (c) Steve Scherf et al.
# Submitted via: CDex 1.70beta2
#
DISCID=44089f06
DTITLE=Bobby Hutcherson - Spiral
DYEAR=1968
DGENRE=Jazz
TTITLE0=Ruth
TTITLE1=The Wedding March
TTITLE2=Poor People's March
TTITLE3=Spiral
TTITLE4=Visions
TTITLE5=Jasper
EXTD=YEAR: 1968
EXTT0=
EXTT1=
EXTT2=
EXTT3=
EXTT4=
EXTT5=
PLAYORDER=
